<svg xmlns="http://www.w3.org/2000/svg" viewBox="0 0 581.48 251.76"><defs><style>.cls-1,.cls-2{fill:#024c73;}.cls-2{font-size:65px;font-family:MyriadPro-Regular, Myriad Pro;}.cls-3{letter-spacing:0.01em;}.cls-4{letter-spacing:-0.01em;}.cls-5{letter-spacing:0em;}.cls-6{letter-spacing:0em;}</style></defs><g id="Capa_2" data-name="Capa 2"><g id="Capa_1-2" data-name="Capa 1"><path class="cls-1" d="M76.3,31.4l51,28.1a2.19,2.19,0,0,0,.92.23,1.61,1.61,0,0,0,.91-.23l51-28.1a1.77,1.77,0,0,0,.92-1.54,1.69,1.69,0,0,0-.92-1.54L129.11.21a2,2,0,0,0-1.78,0l-51,28.08a1.76,1.76,0,0,0-.92,1.54A1.78,1.78,0,0,0,76.3,31.4Z"/><path class="cls-1" d="M180,112.16l-51-28.1a2,2,0,0,0-1.78,0l-51,28.1a1.77,1.77,0,0,0-.92,1.54V220.8a4.27,4.27,0,0,0,2.2,3.7L126,251.19a4.18,4.18,0,0,0,2.1.57,4,4,0,0,0,2.09-.57l48.49-26.66a4.16,4.16,0,0,0,2.2-3.7V113.7A1.44,1.44,0,0,0,180,112.16Zm-96,7.32,39.79,21.94v98.8L84,218.28v-98.8Zm88.31,98.8-39.79,21.94v-98.8l39.79-21.94Z"/><path class="cls-1" d="M105.62,71.86a1.7,1.7,0,0,0-.91-1.54l-51-28.11a2,2,0,0,0-1.78,0L.92,70.29A1.76,1.76,0,0,0,0,71.83V179.08a4.25,4.25,0,0,0,2.2,3.7l48.49,26.74a4.18,4.18,0,0,0,2.1.57,4,4,0,0,0,2.09-.57l2.19-1.23V99.63l47.56-26.21A1.75,1.75,0,0,0,105.62,71.86ZM48.44,198.58,8.66,176.64V77.87L48.44,99.81v98.77Z"/><path class="cls-1" d="M256.34,71.93v-.1a1.15,1.15,0,0,0,0-.41v0a1.84,1.84,0,0,0-.87-1.08L207.61,43.93l-3.17-1.74A1.22,1.22,0,0,0,204,42a1.21,1.21,0,0,0-.42,0,2.4,2.4,0,0,0-.92.23l-6.28,3.47L151.69,70.27a1.89,1.89,0,0,0-.87,1.07,1.3,1.3,0,0,0-.1.47,1.72,1.72,0,0,0,.91,1.54l47.56,26.2V208.32l2.19,1.23a4.16,4.16,0,0,0,2.1.56,4,4,0,0,0,2.09-.56L254,182.91a4.17,4.17,0,0,0,2.2-3.7v-107c0-.06.05-.11.05-.13S256.34,72,256.34,71.93Zm-8.66,104.71L207.9,198.58V99.76l39.78-21.94Z"/><text class="cls-2" transform="translate(296.41 57.78) scale(1.02 1)"><tspan class="cls-3">I</tspan><tspan class="cls-4" x="16.25" y="0">z</tspan><tspan x="43.61" y="0">ca</tspan><tspan class="cls-5" x="104.06" y="0">r</tspan><tspan class="cls-6" x="125.58" y="0">r</tspan><tspan x="146.51" y="0">aga </tspan><tspan x="0" y="78">Ximénez </tspan><tspan x="0" y="156">S.A de C.V</tspan></text></g></g></svg>